<?xml version="1.0" encoding="utf-8"?>
<!-- Generator: Adobe Illustrator 22.1.0, SVG Export Plug-In . SVG Version: 6.00 Build 0)  -->
<svg version="1.1" id="Layer_1" xmlns="http://www.w3.org/2000/svg" xmlns:xlink="http://www.w3.org/1999/xlink" x="0px" y="0px"
	 viewBox="0 0 720 406.3" style="enable-background:new 0 0 720 406.3;" xml:space="preserve">
<style type="text/css">
	.st0{fill:#F47D30;}
	.st1{fill:#72CCD2;}
	.st2{fill:none;}
</style>
<g>
	<g>
		<path d="M76.9,42.2c-88.5,80-46.9,187.3-16.1,238.4c27,44.7,95.4,124.7,247.2,110.8c151.8-13.9,446.2-94.4,372.6-261.1
			c-44-99.8-182.1-31.2-266.3-42.6C313.7,74.2,165.6-37.9,76.9,42.2z"/>
	</g>
	<g>
		<g>
			<path class="st0" d="M494.1,284.4c1.8-2.9,2.3-6.5,2.3-11.1v-20.7h-13.7v20.8c0,4-0.7,6.4-3.8,6.4c-3.2,0-3.8-2.4-3.8-6.4v-20.8
				h-13.7v20.7c0,4.6,0.4,8.2,2.2,11.1c2.7,4.2,7.8,7,14.2,7.3h2.3C486.3,291.4,491.4,288.7,494.1,284.4z"/>
			<path class="st0" d="M433.9,291.7c3,0,5.9-0.6,8.9-1.8l0.4-14.4c-3.1,2.2-5.7,3.5-8.5,3.5c-4.5,0-7.2-3-7.2-7.4
				c0-4.6,3-7.6,7.5-7.6c2.9,0,5.4,1.2,8,3.6v-14.2c-2.9-1.3-5.9-1.9-9-1.9c-11.8,0-20.4,8.5-20.4,20.1c0,6.7,2.8,12.3,7.9,16.1
				c2.4,1.8,5.2,3,8.3,3.5C429.8,291.3,433.3,291.7,433.9,291.7z"/>
			<polygon class="st0" points="541.4,290.7 541.4,280.4 529,280.4 529,276.4 540,276.4 540,266.6 529,266.6 529,262.9 541.1,262.9 
				541.1,252.6 515.6,252.6 515.6,290.7 			"/>
			<path class="st0" d="M240.2,285.9l1.2,4.8h14.7l-13.3-38.1h-15.3L214,290.7h14.7l1.2-4.8H240.2z M232.1,276.9l1.2-4.3
				c0.5-2,1.3-4.7,1.6-8.4h0.3c0.2,3.7,1,6.4,1.6,8.4l1.2,4.3H232.1z"/>
			<path class="st0" d="M291.1,290.7h15.4l-10.2-15.5c4.4-0.5,7.4-4.3,7.4-9.7c0-8.2-5.2-12.9-15.4-12.9H271v38.1h13.8v-12
				L291.1,290.7z M284.5,262.4h2.1c2.7,0,4,1.4,4,3.8c0,2.4-1.4,3.7-4,3.7h-2.1V262.4z"/>
			<path class="st0" d="M187.4,290.7c9.4,0,14.2-3.8,14.2-10.8c0-5-2.5-8-7.7-9.1c3.7-0.9,5.9-3.7,5.9-7.9c0-6.3-4.4-10.4-12.4-10.4
				h-18.2v38.1h14.4H187.4z M182,261.7h1.8c2.2,0,3.4,1,3.4,2.7c0,1.7-1.2,2.7-3.4,2.7H182V261.7z M182,275.2h2.3
				c2.8,0,4.3,1.1,4.3,3.1c0,1.9-1.5,3-4.3,3H182V275.2z"/>
			<path class="st0" d="M339.8,290.7c9.5,0,14.2-3.8,14.2-10.8c0-5-2.5-8-7.7-9.1c3.8-0.9,5.9-3.7,5.9-7.9c0-6.3-4.4-10.4-12.4-10.4
				h-18.2v38.1h15.4H339.8z M334.5,261.7h1.8c2.2,0,3.4,1,3.4,2.7c0,1.7-1.2,2.7-3.4,2.7h-1.8V261.7z M334.5,281.3v-6.1h2.3
				c2.8,0,4.3,1.1,4.3,3.1c0,1.9-1.5,3-4.3,3H334.5z"/>
			<polygon class="st0" points="397.4,290.7 397.4,280.4 385,280.4 385,276.4 395.9,276.4 395.9,266.6 385,266.6 385,262.9 
				397,262.9 397,252.6 371.5,252.6 371.5,290.7 			"/>
		</g>
	</g>
	<path class="st1" d="M252,172.9c0.9,0.7-10.7,9.8-10.7,9.8s-0.7-7.4-5-7.6c-9.4-0.5-22.6,21.7-28.2,31.6
		c-5.6,9.9-5.4,13.7-5.4,13.7l-21.1-0.2c0,0,16.7-34,17.6-39.6c0.5-2.9,1.2-6.6,1.8-9.4c-7.7-0.4-23.1-1.1-39.8-1.1
		c-8.8,13.4-20.2,31.1-28.4,45.3c-12.2,21-33.4,36.6-38.5,26.7c-5.1-9.9-6.4-26.5-6.4-26.5l20.2-10.1c0,0,0,0,0.5,12.4
		c0.4,12.4,3.9,16.1,8.1,10.8c4.2-5.3,12.2-18.6,23-38.7c3-5.6,6.9-12.6,10.8-19.9c-23.1,0.4-41.5,1.8-41.5,1.8l0.2-6.4
		c0,0,23.5-0.5,44.1-0.6c7.5-13.7,14.9-27.1,17.5-31.8c-1.3,0.2-2.6,0.3-3.9,0.5c-28.6,4.4-58,12-59,12.2c-0.9,0.2-11-19.8-11-19.8
		s41.5-10.8,82.9-12.9c41.4-2.1,47.2-0.9,50.7-0.9c3.4,0-11.3-6-17.7-6.9c-6.5-0.9,15.7-0.2,28.3,3.7c12.7,3.9,12.9,5.1,12.9,5.1
		l-15,20.3c0,0-26.3-3.1-51.3-2.4c-3.6,4.6-10.9,14.5-16.4,22.6c-1.7,2.6-4.1,6.1-6.8,10.2c6.6,0,12.1,0.1,15.5,0.2
		c8.4,0.4,16,1.1,22,1.6l21.4,0.1c0,0-6,11.6-8.7,16.4c-0.8,1.4-1.2,3.5,0.5,1.9c7.2-6.9,12.8-17.4,22.5-18.6
		C244.7,165.6,246.7,168.7,252,172.9z M610.4,198.5c0,0,1.7-0.8,2.6,0.8c0.9,1.6-1.1,3-1.1,3s-22.8,13.4-27.9,16.4
		c-5.1,3-12.7,5.4-15-4.7c-1.2-5,0.2-10.3,1.8-15.1c1.7-5.1,4-10,6.7-14.7c1.2-2.1,2.6-4.2,3.9-6.2c1.1-1.7,2.9-3.8,2.8-6
		c-0.1-2.3-2.9-2.1-4.4-1.7c-5.4,1.5-9.1,6.9-12.7,10.9c-1.6,1.8-3.1,3.7-4.6,5.6c-0.9,1.9-1.7,3.6-2.3,5
		c-3.5,7.2-8.4,28.6-8.4,28.6s-10.5,0.2-13-0.3c-5.7-1.1-0.9-13.1,3.2-22.5c-1.5,1.3-2.9,2.6-4.4,3.9c-5.2,4.6-10.8,8.7-16,13.3
		c0,0-8.1,7.1-20.9,6.8c-7.3-0.2,2.1-18.9,5.7-27.9c1.5-3.7,3-7.5,4.1-10.8c-0.4,0.3-0.8,0.6-1,0.7c-6.6,5.9-13.1,12-19.8,17.8
		c-5.2,4.6-10.8,8.7-16,13.3c-4.1,3.7-9.2,8.2-15.2,6.5c-9-2.5-6.5-14.7-6.5-14.7s0.6-3.5,1.3-6.8c-3.1,1.9-7.7,4.7-12.3,7.8
		c-6.8,4.6-13.6,10-15.9,11.4c-5.1,3-11.3,6.8-13.9-4.9c-2.8-12.6-3.7-21.9-3.7-24.2c0-2,6.8-3.5,8.1-4c2.9-1,5.8-2.2,8.5-3.7
		c3.2-1.8,6.2-4.1,8.1-7.3c0.9-1.4,3.2-8.2-0.2-8.8c-6.7-1.2-13.3,6.5-19.3,12.8c-2.5,2.7-4.9,5.8-7.1,8.7c-1.1,2.2-1.9,3.9-2.4,4.8
		c-5.7,11.6-9.8,28.3-9.8,28.3s-15.7,1.5-15.7-0.8c0-3,0.7-6.8,1.8-10.9c-4.4,2.2-9.8,5.4-15.5,9.5c-4.8,3.4-12.7,5.4-15-4.7
		c-1.1-5,0.2-10.3,1.8-15.1c1.7-5.1,4-10,6.7-14.7c1.2-2.1,2.6-4.2,3.9-6.2c0.9-1.5,2.1-2.9,2.6-4.5c0.4-1.4-0.2-3.2-1.9-3.3
		c-1.6-0.1-3.4,1-4.7,1.9c-3.2,2.1-5.7,5.2-8.2,8c-3.4,3.9-8.5,10.2-11.7,14.7c-3.3,8.9-7.1,25.6-7.1,25.6s-10.5,0.2-13-0.3
		c-7.1-1.4,2.3-20,6-29c0.2-0.5,0.4-1.1,0.7-1.6c-9.4,9.2-25.5,24.8-30.2,28.2c-6.8,5-13.2,5.9-16.2,2c-3.2-4-2.4-10-2.4-10
		s-13.9,13.9-22.9,11.4c-1.9-0.5-3.9-1.9-5.1-3.4c-4.7-6.6,0-18.6,3.4-25c2.5-4.7,5.6-9.3,8.9-13.6c3.5-4.6,7.9-9,13-11.8
		c2.5-1.4,5.8-2.5,8.7-2.6c2.4,0,6.8,0.2,9.7,2.5c1.2,1,1.6,2.4,1.7,4c2-4,3.5-6.9,3.5-6.9l7.4,2.2c2.2-0.1,4.6-0.1,6.1-0.1
		c0.7,0,1.6,0.4,1.6,0.4s-0.7,1.4-1.9,3.6c-1.9,3.9-6.9,12-9.8,17.9c-1.4,2.9-3.8,8.8-6.6,13.2c-1.2,2.4-2.2,4.4-2.8,5.8
		c-3.8,8.6-0.9,8.9,5.8,3c2.9-2.5,7.6-6.2,14-12.1c8.5-8,17.3-17.5,18.9-19.5c0.2-0.3,0.4-0.5,0.6-0.6c3-6.3,5.8-11.7,5.8-11.7
		l11.6-0.6l3.2,1.1c0,0-2.2,5.1-4.8,11c3.3-4.1,7.2-8.2,11.8-10.1c4.1-1.7,10-1.3,13.6,1.3c3.7,2.6,4.3,6,2.8,10.1
		c-2.4,6.4-13.8,30.1-12.3,33.4c1.5,3.4,8.9-1.9,13.2-4.3c1.6-0.9,4.1-2.3,6.7-3.8c1.5-4.4,3.4-8.9,5.3-12.6
		c2.8-5.5,7.3-13.8,10.9-21.5c3.6-7.7,24.9-47.7,24.9-47.7s4.2,1.6,6.3,3.9c2.1,2.2,4.4,7.4,4.4,7.4s-11,21.6-19.6,38.8
		c4.8-4.8,10.7-9.6,16.1-11c4.5-1.1,7.5,1.6,9.4,3.4c2.4,2.3,3,5.8,2.6,9c-0.8,6.8-5.4,12.6-11,15.8c-1,0.6-12.3,6.9-12.4,6.4
		c0,0,2.9,13.7,4.4,17c1.5,3.4,8.7-3.3,13-5.7c3.5-2,15-10.7,19.4-14c0.5-4.1,3.1-25.2,13.3-40.5c11.3-17,23.7-26.4,33.6-20.7
		c8.5,4.8-3.2,33-18.6,46.5c-9.2,8.1-12.2,10.6-12.2,10.6s-2.4,18.1-2.1,22.2c0.2,2.8,3.8-0.6,4.6-1.3c10.2-8.8,20.3-17.9,29.8-27.4
		c2.1-2.1,4.3-4.3,6.4-6.4c0.2-0.2,2.4-2.8,2.7-2.7l6-4.8l14.3,4.8c0,0-6.9,13-10.6,20.5c-3.7,7.6-10.7,20.7-6.9,18.9
		c0,0,5.5-2.5,8.8-5.3c8.5-7.2,15.1-13.2,22.5-20.4c4-9,10.3-21.2,10.3-21.2l11.5-0.6l3.2,1.1c0,0-1.4,3.3-3.3,7.7
		c2.7-2.9,5.6-5.4,9-6.8c4.1-1.7,10-1.3,13.6,1.3c3.7,2.6,4.3,6,2.8,10.1c-2.4,6.4-13.7,29.3-12.2,32.7c1.5,3.4,8.8-1.6,13.1-4.1
		C600.6,204.2,610.4,198.5,610.4,198.5z M473.5,176.9c0,0,10.1-6.5,17.5-17.5c5.8-8.5,9.4-15.4,7.8-19.1c-1.7-3.8-6.2,1.6-9.7,6.2
		C485.7,151.1,476,170,473.5,176.9z M286.6,169.3c-3.5-2.1-11,5.8-19.5,19.1c-8.5,13.4-11.9,23.4-8.4,25.5
		c3.5,2.1,11.5-4.1,19.9-17.5C287.1,183.1,290.1,171.4,286.6,169.3z"/>
	<path class="st0" d="M542.8,107.1c5.6,16.2,8.6,26.1,4,39.3c-4.3,12.1-16.7,18.1-21.7,19.8c-4.7-5.7-12.1-18.8-4.5-32
		C525.3,125.8,536.5,121.5,542.8,107.1z M537.9,149.4c2.8-7.9-0.9-12.8-0.1-21.9c-5.9,5.3-8.6,10.8-10.8,17.2
		c-2.1,5.9-1.5,15.7-0.9,18.6C533.1,159.3,536.2,154.3,537.9,149.4z"/>
	<path class="st2" d="M76.9,42.2c-88.5,80-46.9,187.3-16.1,238.4c27,44.7,95.4,124.7,247.2,110.8c151.8-13.9,446.2-94.4,372.6-261.1
		c-44-99.8-182.1-31.2-266.3-42.6C313.7,74.2,165.6-37.9,76.9,42.2z"/>
</g>
<g>
	<path d="M676.9,76.2c2,0,4,0.5,6,1.6c1.9,1,3.4,2.5,4.5,4.5c1.1,1.9,1.6,4,1.6,6.1c0,2.1-0.5,4.1-1.6,6s-2.6,3.4-4.5,4.5
		c-1.9,1.1-3.9,1.6-6,1.6s-4.1-0.5-6-1.6c-1.9-1.1-3.4-2.6-4.5-4.5c-1.1-1.9-1.6-3.9-1.6-6c0-2.1,0.5-4.1,1.6-6.1
		c1.1-1.9,2.6-3.4,4.5-4.5C672.9,76.7,674.8,76.2,676.9,76.2z M676.9,78.2c-1.7,0-3.4,0.4-5,1.3c-1.6,0.9-2.9,2.1-3.8,3.7
		c-0.9,1.6-1.4,3.3-1.4,5.1c0,1.7,0.4,3.4,1.3,5c0.9,1.6,2.1,2.8,3.8,3.7c1.6,0.9,3.3,1.3,5,1.3c1.7,0,3.4-0.4,5-1.3
		c1.6-0.9,2.9-2.1,3.7-3.7c0.9-1.6,1.3-3.3,1.3-5c0-1.8-0.5-3.4-1.4-5.1c-0.9-1.6-2.2-2.9-3.8-3.7C680.2,78.6,678.6,78.2,676.9,78.2
		z M671.6,95V82h4.5c1.5,0,2.6,0.1,3.3,0.4c0.7,0.2,1.2,0.7,1.6,1.3c0.4,0.6,0.6,1.2,0.6,1.9c0,1-0.3,1.8-1,2.5
		c-0.7,0.7-1.6,1.1-2.7,1.2c0.5,0.2,0.8,0.4,1.1,0.7c0.5,0.5,1.2,1.4,1.9,2.6l1.6,2.6h-2.6l-1.2-2.1c-0.9-1.6-1.6-2.6-2.2-3
		c-0.4-0.3-0.9-0.4-1.7-0.4h-1.2V95H671.6z M673.7,87.7h2.6c1.2,0,2.1-0.2,2.5-0.5c0.4-0.4,0.7-0.8,0.7-1.4c0-0.4-0.1-0.7-0.3-1
		c-0.2-0.3-0.5-0.5-0.9-0.7c-0.4-0.2-1.1-0.2-2.1-0.2h-2.4V87.7z"/>
</g>
</svg>
